# xmcd CD database file
#
# Track frame offsets:
#	150
#	21139
#	41709
#	59003
#	77100
#	94380
#	112819
#	135356
#	153598
#	181298
#	204672
#	224067
#
# Disc length: 3258 seconds
#
# Revision: 0
# Processed by: cddbd v1.4PL0 Copyright (c) Steve Scherf et al.
# Submitted via: Feurio! 1.63 - http://www.feurio.com
#
DISCID=ac0cb80c
DTITLE=Pet Shop Boys - Bilingual
DYEAR=1900
DGENRE=
TTITLE0=Discoteca
TTITLE1=Single
TTITLE2=Metamorphosis
TTITLE3=Electricity
TTITLE4=Se a vida é
TTITLE5=It always comes as a surprise
TTITLE6=A red letter day
TTITLE7=Up against it
TTITLE8=The survivors
TTITLE9=Before
TTITLE10=To step aside
TTITLE11=Saturday night forever
EXTD=
EXTT0=
EXTT1=
EXTT2=
EXTT3=
EXTT4=
EXTT5=
EXTT6=
EXTT7=
EXTT8=
EXTT9=
EXTT10=
EXTT11=
PLAYORDER=
